HIERARCHY
ROOT Hips
{
    OFFSET 0.000000 0.000000 0.000000
    CHANNELS 6 Xposition Yposition Zposition Zrotation Xrotation Yrotation
    JOINT Spine
    {
        OFFSET -0.000000 14.517291 0.000000
        CHANNELS 3 Zrotation Xrotation Yrotation
        JOINT Spine1
        {
            OFFSET -0.000000 37.558300 0.000000
            CHANNELS 3 Zrotation Xrotation Yrotation
            JOINT Neck
            {
                OFFSET -0.000000 37.404057 3.400369
                CHANNELS 3 Zrotation Xrotation Yrotation
                JOINT Head
                {
                    OFFSET -0.000000 24.785618 -3.540803
                    CHANNELS 3 Zrotation Xrotation Yrotation
                    End Site
                    {
                        OFFSET -0.000000 35.408028 0.000000
                    }
                }
            }
            JOINT LeftShoulder
            {
                OFFSET 6.992933 33.973492 -0.192664
                CHANNELS 3 Zrotation Xrotation Yrotation
                JOINT LeftArm
                {
                    OFFSET 21.527611 0.000000 0.000000
                    CHANNELS 3 Zrotation Xrotation Yrotation
                    JOINT LeftForeArm
                    {
                        OFFSET 56.353916 0.000000 0.000000
                        CHANNELS 3 Zrotation Xrotation Yrotation
                        JOINT LeftHand
                        {
                            OFFSET 47.774071 0.000000 0.000000
                            CHANNELS 3 Zrotation Xrotation Yrotation
                            End Site
                            {
                                OFFSET 26.556021 0.000000 0.000000
                            }
                        }
                    }
                }
            }
            JOINT RightShoulder
            {
                OFFSET -7.065357 33.973492 -0.192664
                CHANNELS 3 Zrotation Xrotation Yrotation
                JOINT RightArm
                {
                    OFFSET -21.527611 0.000000 0.000000
                    CHANNELS 3 Zrotation Xrotation Yrotation
                    JOINT RightForeArm
                    {
                        OFFSET -56.353916 0.000000 0.000000
                        CHANNELS 3 Zrotation Xrotation Yrotation
                        JOINT RightHand
                        {
                            OFFSET -47.774071 0.000000 0.000000
                            CHANNELS 3 Zrotation Xrotation Yrotation
                            End Site
                            {
                                OFFSET -26.556021 0.000000 0.000000
                            }
                        }
                    }
                }
            }
        }
    }
    JOINT LeftUpLeg
    {
        OFFSET 17.704014 0.000000 0.000000
        CHANNELS 3 Zrotation Xrotation Yrotation
        JOINT LeftLeg
        {
            OFFSET -0.000000 -81.181816 0.000000
            CHANNELS 3 Zrotation Xrotation Yrotation
            JOINT LeftFoot
            {
                OFFSET -0.000000 -62.821102 0.000000
                CHANNELS 3 Zrotation Xrotation Yrotation
                JOINT LeftToeBase
                {
                    OFFSET -0.000000 -11.507608 26.556021
                    CHANNELS 3 Zrotation Xrotation Yrotation
                    End Site
                    {
                        OFFSET -0.000000 0.000000 7.081605
                    }
                }
            }
        }
    }
    JOINT RightUpLeg
    {
        OFFSET -17.704014 0.000000 0.000000
        CHANNELS 3 Zrotation Xrotation Yrotation
        JOINT RightLeg
        {
            OFFSET -0.000000 -81.181816 0.000000
            CHANNELS 3 Zrotation Xrotation Yrotation
            JOINT RightFoot
            {
                OFFSET -0.000000 -62.821102 0.000000
                CHANNELS 3 Zrotation Xrotation Yrotation
                JOINT RightToeBase
                {
                    OFFSET -0.000000 -11.507608 26.556021
                    CHANNELS 3 Zrotation Xrotation Yrotation
                    End Site
                    {
                        OFFSET -0.000000 0.000000 7.081605
                    }
                }
            }
        }
    }
}
MOTION
Frames:    13
Frame Time:    0.008333
-7.736645    146.140671    -65.121910    1.003868    -10.094129    50.140614    -2.493476    2.513836    -1.434403    -10.005322    0.622786    -0.440382    7.838740    -5.090746    -10.688660    13.034238    10.660569    -12.035370    10.378652    3.882586    -27.410646    -22.785513    20.608253    -75.649796    -17.904696    -5.747629    -75.263603    12.875185    -20.019314    -6.150075    -13.987531    -7.256627    -0.529515    21.709862    -26.639711    68.080315    -2.158560    -8.125163    20.129353    -12.223438    -10.673830    27.179258    25.321512    -3.508543    -9.403096    -13.814135    50.671520    -25.195799    10.517566    -36.612484    47.063644    0.000000    0.000000    0.000000    -25.362770    -16.838804    -13.059028    6.053579    16.492653    -15.155069    16.127184    29.946321    -27.222971    0.000000    0.000000    0.000000    
-7.306209    146.481796    -66.510750    0.902751    -10.141148    50.110573    -2.656497    2.155107    -1.009906    -9.614084    1.087529    -0.260106    8.117416    -5.267325    -10.849575    12.545707    10.511616    -12.277679    10.570963    3.740783    -28.036854    -22.982327    20.526133    -75.610313    -17.672966    -5.842751    -75.277504    12.785236    -19.951180    -6.320386    -13.985746    -7.386122    -0.963158    21.190823    -26.580957    67.830284    -2.345543    -8.314547    20.084520    -12.136367    -10.820850    27.284380    24.884148    -3.828990    -9.431816    -14.000540    50.838585    -25.051516    10.853342    -36.384659    47.243217    0.000000    0.000000    0.000000    -25.110329    -16.379028    -13.180254    5.251488    14.592185    -15.500600    16.586416    31.831175    -27.319355    0.000000    0.000000    0.000000    
-6.873415    146.788605    -67.862534    0.832512    -10.215849    50.043545    -1.995515    2.115714    -1.410202    -10.183246    1.021271    -0.389076    7.519671    -5.552737    -10.663305    13.030119    11.034772    -12.020985    10.301500    3.668434    -27.096809    -22.772429    20.952190    -75.437630    -17.580046    -5.594879    -75.946075    12.834570    -19.788729    -6.143392    -14.277391    -7.562476    -0.440191    21.657507    -26.574810    68.062111    -2.579640    -8.290773    20.054499    -12.150737    -10.746100    27.153160    24.471916    -4.103425    -9.382784    -14.185387    51.061363    -24.961597    11.228086    -36.128162    47.461628    0.000000    0.000000    0.000000    -24.859253    -15.937188    -13.346138    4.652832    12.958688    -15.843701    17.091394    33.313305    -27.645119    0.000000    0.000000    0.000000    
-6.462505    147.060181    -69.196548    0.718247    -10.287696    49.944931    -1.904413    2.133617    -1.230409    -10.059100    0.873010    -0.342715    7.635896    -5.796676    -10.701915    12.678731    11.271784    -12.143600    10.371227    3.714647    -27.120470    -22.866642    21.089228    -75.491241    -17.488344    -5.506063    -76.131920    12.903455    -19.693680    -6.251223    -14.273914    -7.583159    -0.644443    21.338394    -26.431332    68.069069    -2.840800    -8.422033    19.997820    -12.060449    -10.802327    27.076082    24.064959    -4.457623    -9.354295    -14.382826    51.411720    -24.645273    11.459015    -35.936501    47.478500    0.000000    0.000000    0.000000    -24.587397    -15.579762    -13.622764    4.257336    11.676264    -16.177813    17.280767    34.246399    -27.248602    0.000000    0.000000    0.000000    
-6.083436    147.301117    -70.523438    0.585008    -10.332203    49.782219    -1.773869    2.101475    -1.020348    -10.053914    0.779901    -0.279857    7.749737    -6.019248    -10.731741    12.496218    11.450424    -12.240799    10.471682    3.570884    -27.241354    -23.040615    21.320454    -75.362175    -17.367851    -5.439340    -76.388145    12.751043    -19.590576    -6.249474    -14.216704    -7.673980    -0.824865    20.942167    -26.259958    68.013947    -3.118082    -8.634022    19.929052    -11.997799    -10.955280    27.108740    23.745489    -4.742283    -9.274824    -14.746923    51.568462    -24.386663    11.919611    -35.693565    47.637695    0.000000    0.000000    0.000000    -24.291744    -15.390987    -14.058843    4.022060    10.806051    -16.382244    17.140989    34.854149    -26.316645    0.000000    0.000000    0.000000    
-5.707362    147.505630    -71.813049    0.466622    -10.417382    49.605446    -1.596787    2.126167    -0.819293    -10.053130    0.654583    -0.222800    7.780447    -6.196515    -10.757661    12.401990    11.587199    -12.305456    10.597005    3.535238    -27.201324    -23.029661    21.497604    -75.464073    -17.301847    -5.444574    -76.647034    12.801930    -19.607719    -6.242566    -14.280750    -7.773745    -0.929358    20.675013    -26.182255    67.944984    -3.294202    -8.784319    19.833176    -11.974491    -11.062073    27.023424    23.380453    -5.045727    -9.266510    -15.049392    51.882477    -23.944048    12.267265    -35.507370    47.682484    0.000000    0.000000    0.000000    -23.955683    -15.244740    -14.545680    3.991773    10.312736    -16.760620    17.025631    35.148510    -25.433121    0.000000    0.000000    0.000000    
-5.360199    147.677582    -73.101440    0.314012    -10.463204    49.393780    -1.412342    2.127970    -0.612115    -10.086932    0.498169    -0.166051    8.221277    -6.515990    -10.707550    11.769607    11.817719    -12.415914    10.704243    3.456822    -27.217829    -23.160606    21.603970    -75.433510    -17.315212    -5.247404    -76.854263    12.828958    -19.486786    -6.288467    -14.315008    -7.840548    -1.075174    20.498322    -26.167400    67.995773    -3.407397    -8.929441    19.723732    -11.866699    -11.164783    27.027655    23.029648    -5.337601    -9.441568    -15.620225    52.036213    -23.245604    12.765841    -35.310921    47.829666    0.000000    0.000000    0.000000    -23.614981    -15.236145    -15.097097    4.129023    10.206515    -17.170418    17.311636    34.874107    -25.295101    0.000000    0.000000    0.000000    
-5.002389    147.820129    -74.381691    0.219353    -10.491376    49.159199    -1.218562    2.118130    -0.399969    -10.195497    0.385458    -0.103955    8.284119    -6.504039    -10.733542    11.725146    11.767932    -12.451738    10.806804    3.402206    -27.243816    -23.197969    21.657568    -75.394104    -17.344532    -5.125241    -77.087509    12.734199    -19.449972    -6.339905    -14.406682    -7.957601    -1.085623    20.250805    -26.084383    67.847610    -3.630152    -9.123755    19.672758    -11.847160    -11.304605    26.915190    22.611158    -5.572003    -9.495712    -16.011414    52.217995    -22.839558    13.368906    -35.108921    48.108974    0.000000    0.000000    0.000000    -23.316217    -15.250987    -15.725223    4.323430    10.339179    -17.426374    17.077301    34.369312    -24.984177    0.000000    0.000000    0.000000    
-4.653943    147.944427    -75.650139    0.136644    -10.496922    48.910515    -1.068965    2.091033    -0.210515    -10.238518    0.308813    -0.046618    8.222357    -6.436487    -10.778038    11.811049    11.656238    -12.465492    10.804676    3.338192    -27.221771    -23.143492    21.716429    -75.369759    -17.312920    -5.021778    -77.311707    12.584482    -19.379475    -6.402776    -14.575272    -8.046144    -1.129494    20.225637    -26.128471    67.890434    -3.746830    -9.255438    19.577040    -11.788426    -11.401217    26.882572    22.127392    -5.801793    -9.480510    -16.216799    52.430840    -22.586847    13.998352    -34.907707    48.435551    0.000000    0.000000    0.000000    -23.014051    -15.322072    -16.194698    4.527583    10.625210    -17.683727    16.440950    33.830441    -24.333725    0.000000    0.000000    0.000000    
-4.308626    148.048096    -76.927757    0.112758    -10.466861    48.602287    -0.920063    2.101773    0.012706    -10.420177    0.209569    0.031782    8.307175    -6.413824    -10.738751    11.799274    11.611739    -12.436050    10.867262    3.266432    -27.257818    -23.095257    21.749739    -75.311470    -17.235512    -4.935211    -77.515068    12.477349    -19.288637    -6.490165    -14.664739    -8.114302    -1.101106    20.114765    -26.176249    67.813873    -3.877611    -9.520683    19.557247    -11.722763    -11.620986    26.819872    21.568392    -5.973322    -9.420229    -16.386423    52.621475    -22.365696    14.650476    -34.689266    48.787018    0.000000    0.000000    0.000000    -22.775267    -15.422825    -16.504271    4.741425    10.938469    -17.903330    15.738773    33.292538    -23.621517    0.000000    0.000000    0.000000    
-3.965885    148.133499    -78.219872    0.121798    -10.399737    48.258083    -0.827630    2.100627    0.219922    -10.526690    0.156467    0.085369    8.314192    -6.345710    -10.721591    11.790413    11.494440    -12.402446    10.762317    3.203440    -27.241268    -23.148277    21.681715    -75.160202    -17.310720    -4.629241    -77.627647    12.445497    -19.100752    -6.659760    -14.861634    -8.197783    -1.032284    20.114399    -26.230688    67.805061    -4.055150    -9.761698    19.546759    -11.616662    -11.796679    26.734201    20.940292    -6.138681    -9.353487    -16.537630    52.808968    -22.067263    15.209445    -34.502563    49.078239    0.000000    0.000000    0.000000    -22.624990    -15.509636    -16.808510    5.014746    11.123106    -17.910545    14.981110    32.851482    -23.042973    0.000000    0.000000    0.000000    
-3.645452    148.195236    -79.484062    0.154554    -10.332541    47.870373    -0.783688    2.117804    0.473861    -10.610823    0.132202    0.167972    8.273264    -6.171432    -10.730324    11.922873    11.192054    -12.352746    10.694859    3.219761    -27.216820    -23.076576    21.561670    -75.150543    -17.314081    -4.465651    -77.706261    12.306157    -18.980038    -6.860018    -15.018149    -8.224710    -1.067681    20.133194    -26.311338    67.906555    -4.244777    -10.031901    19.529696    -11.497612    -12.001661    26.695126    20.326172    -6.273006    -9.371209    -16.851141    52.960850    -21.729822    15.847485    -34.272316    49.526550    0.000000    0.000000    0.000000    -22.450808    -15.666543    -17.046911    5.126116    11.277997    -18.066460    13.974464    32.543007    -22.319199    0.000000    0.000000    0.000000    
-3.343810    148.247025    -80.756889    0.174194    -10.240596    47.459698    -0.735137    2.089398    0.670519    -10.715438    0.181227    0.238418    8.378073    -6.194323    -10.670747    11.804152    11.098018    -12.308688    10.588808    3.185502    -27.110653    -23.172853    21.394199    -75.084984    -17.401379    -4.132308    -77.668434    12.156733    -18.735247    -7.058346    -15.186089    -8.355845    -1.013631    20.187021    -26.370127    67.945900    -4.430954    -10.301467    19.566042    -11.323798    -12.193866    26.675413    19.734842    -6.454919    -9.322633    -17.218348    53.125732    -21.223082    16.327696    -34.074112    49.765289    0.000000    0.000000    0.000000    -22.299473    -15.879786    -17.201200    5.189745    11.339872    -18.309603    13.411815    32.331287    -21.883852    0.000000    0.000000    0.000000    
